<?xml version="1.0" standalone="no"?>
<!DOCTYPE svg PUBLIC "-//W3C//DTD SVG 20010904//EN"
 "http://www.w3.org/TR/2001/REC-SVG-20010904/DTD/svg10.dtd">
<svg version="1.0" xmlns="http://www.w3.org/2000/svg"
 width="512.000000pt" height="512.000000pt" viewBox="0 0 512.000000 512.000000"
 preserveAspectRatio="xMidYMid meet">
<metadata>
Created by potrace 1.14, written by Peter Selinger 2001-2017
</metadata>
<g transform="translate(0.000000,512.000000) scale(0.100000,-0.100000)"
fill="#000000" stroke="none">
<path d="M0 4944 c0 -108 4 -173 10 -169 5 3 52 71 105 150 111 168 127 182
182 165 21 -7 48 -21 59 -32 17 -15 24 -17 30 -7 5 9 9 8 14 -6 5 -15 10 -13
29 18 12 20 20 41 16 47 -4 6 -87 10 -226 10 l-219 0 0 -176z"/>
<path d="M570 5083 c12 -21 40 -67 63 -103 l40 -66 141 94 c78 52 145 99 150
103 6 5 -84 9 -203 9 l-213 0 22 -37z"/>
<path d="M1059 5063 c-180 -138 -550 -480 -549 -507 1 -10 18 -24 118 -94 43
-30 50 -22 22 25 l-22 38 48 42 c27 23 52 39 55 37 4 -2 9 0 11 5 10 29 462
320 476 307 3 -4 383 186 401 201 2 1 -106 3 -241 3 l-246 0 -73 -57z"/>
<path d="M1615 5097 c-256 -150 -340 -205 -424 -279 -122 -108 -261 -270 -368
-430 -47 -71 -88 -128 -90 -128 -2 0 -1 6 2 13 21 41 -45 -52 -86 -121 -95
-161 -196 -393 -184 -424 4 -9 -7 -18 -29 -26 -87 -32 -256 -264 -400 -549
-57 -113 -42 -120 18 -8 29 55 68 127 86 160 104 191 262 385 313 385 31 0 43
16 27 35 -9 11 -4 32 26 97 54 122 85 181 90 175 3 -3 -2 -19 -10 -36 -9 -17
-21 -42 -26 -56 l-10 -26 35 28 c24 19 52 60 85 128 27 55 63 125 80 155 51
88 196 302 233 343 19 20 42 48 51 61 8 13 29 27 46 31 16 4 30 11 30 16 0 5
4 9 9 9 5 0 23 14 41 30 18 17 35 28 38 25 3 -3 16 5 29 17 13 12 23 19 23 15
0 -4 15 2 33 13 17 10 54 30 80 44 41 21 48 22 43 8 -5 -13 -2 -12 11 3 23 26
233 115 363 154 188 55 782 64 989 15 36 -9 134 -29 216 -45 83 -16 126 -27
98 -24 -43 3 -53 1 -53 -11 0 -9 -5 -12 -12 -8 -6 4 -8 3 -4 -4 3 -6 1 -23 -5
-39 -7 -15 -14 -36 -15 -45 -2 -9 -11 -36 -20 -60 -9 -24 -18 -58 -21 -76 -3
-19 -12 -36 -19 -39 -8 -3 -12 -9 -9 -13 9 -15 -19 -100 -33 -100 -7 0 -10 -5
-7 -10 3 -6 -1 -13 -10 -16 -8 -4 -15 -11 -14 -18 3 -22 -1 -33 -21 -56 -11
-12 -17 -26 -15 -31 3 -4 0 -11 -6 -15 -7 -4 -9 -3 -5 4 7 12 -20 10 -31 -3
-4 -4 -3 -5 3 -2 38 22 1 -74 -41 -108 -16 -13 -36 -85 -28 -99 3 -6 2 -8 -2
-3 -5 4 -15 -7 -22 -24 -13 -31 -9 -54 8 -44 5 3 6 -1 2 -11 -5 -15 -7 -15
-16 1 -8 15 -14 8 -34 -41 -13 -32 -21 -64 -18 -72 2 -7 1 -11 -4 -8 -5 3 -12
-1 -15 -10 -9 -24 -7 -31 4 -14 5 8 10 10 10 4 0 -6 -9 -23 -21 -38 -11 -15
-22 -32 -23 -39 -2 -6 -13 -34 -24 -60 -12 -27 -22 -52 -22 -55 0 -4 -11 -34
-25 -67 l-26 -60 -387 0 c-407 -1 -651 -13 -866 -46 -71 -10 -131 -19 -132
-19 -2 0 -4 48 -5 108 -1 81 -3 100 -10 77 -12 -39 -13 -215 -1 -227 5 -5 59
-3 133 6 316 38 678 51 1014 36 138 -5 259 -11 270 -13 23 -2 31 13 132 246
35 81 72 162 82 180 10 18 41 76 70 130 37 69 58 97 71 97 62 0 369 -97 495
-156 222 -104 443 -273 429 -328 -27 -114 -51 -955 -34 -1186 14 -181 24 -221
68 -267 48 -51 171 -206 215 -271 44 -64 81 -160 69 -176 -98 -126 -167 -202
-323 -357 -184 -183 -189 -186 -271 -219 -102 -40 -205 -91 -278 -138 -161
-102 -316 -284 -355 -417 -10 -33 -25 -49 -86 -92 -42 -30 -80 -50 -89 -47
-60 22 -227 45 -360 50 -158 6 -389 -14 -416 -36 -6 -6 -17 -38 -24 -73 -7
-34 -15 -66 -18 -70 -2 -5 -18 4 -34 20 -23 22 -28 34 -25 58 6 40 -21 75
-135 172 -51 43 -102 86 -113 96 -11 10 -41 32 -67 49 -27 16 -48 32 -48 35 0
12 100 -59 183 -130 31 -27 57 -45 57 -41 0 4 7 -1 16 -12 8 -10 13 -13 9 -6
-3 6 -1 12 4 12 6 0 11 -5 11 -12 0 -6 3 -9 6 -5 4 3 33 -14 65 -39 33 -25 59
-43 59 -40 0 11 -206 166 -340 256 -211 140 -254 163 -294 156 -27 -5 -43 1
-102 42 -38 26 -85 61 -103 77 -19 17 -58 50 -86 75 -29 25 -61 52 -71 61 -70
58 -224 253 -254 324 -19 45 -19 47 -1 143 11 53 33 132 50 175 21 53 29 86
25 104 -5 18 -3 24 5 19 6 -4 11 -1 11 7 0 8 -7 18 -16 21 -13 5 -14 9 -4 21
11 13 10 14 -6 8 -17 -6 -17 -5 -5 10 12 15 12 17 -3 11 -11 -4 -16 -1 -16 11
0 9 5 13 11 9 8 -4 8 0 0 15 -13 24 -23 28 -15 6 5 -11 2 -13 -10 -9 -9 3 -16
9 -16 13 0 4 -7 16 -16 27 -14 18 -14 18 -3 -6 7 -13 27 -48 46 -77 l33 -52
-24 -45 c-13 -25 -32 -67 -42 -93 -21 -58 -32 -73 -51 -73 -8 0 -43 -14 -79
-31 -36 -17 -68 -29 -71 -25 -4 3 -1 6 5 6 7 0 12 8 12 18 0 14 -2 15 -10 2
-5 -8 -10 -10 -10 -5 0 6 4 15 9 20 4 6 11 25 14 43 6 30 3 35 -40 62 -43 28
-101 50 -166 64 -21 5 -33 1 -51 -17 -19 -20 -25 -39 -31 -102 -8 -85 -1 -208
16 -268 9 -32 7 -41 -10 -63 -11 -14 -22 -37 -26 -53 -5 -24 -10 -27 -44 -27
l-37 1 4 -65 c4 -65 4 -65 -27 -77 l-32 -11 1 -341 c1 -291 3 -339 16 -334 19
7 18 -58 -1 -112 -11 -30 -15 -94 -15 -262 l0 -223 140 0 c78 0 140 4 140 9 0
5 -21 68 -46 141 -42 116 -45 132 -31 143 18 14 41 93 31 108 -4 8 -1 8 12 1
14 -7 36 -66 78 -206 32 -108 62 -196 66 -196 9 0 -38 178 -79 305 -16 50 -28
90 -28 91 41 15 170 55 172 52 1 -2 17 -29 35 -62 39 -68 58 -79 179 -96 55
-8 90 -19 102 -31 18 -18 139 -59 239 -80 50 -11 55 -10 67 8 10 14 21 18 43
15 26 -4 29 -8 28 -38 -1 -18 7 -53 16 -76 10 -24 22 -53 27 -66 8 -21 13 -22
132 -22 l124 0 7 52 c13 111 58 335 73 360 2 4 37 -16 78 -45 41 -29 101 -69
134 -89 l59 -38 -38 -117 -39 -118 836 -3 c460 -1 838 0 840 2 3 2 -4 21 -15
43 -11 21 -17 44 -15 51 3 6 0 12 -5 12 -12 0 -55 70 -47 78 3 3 5 2 5 -2 0
-4 7 0 16 9 18 18 63 13 76 -8 6 -9 8 -9 8 1 0 10 5 10 20 2 11 -6 20 -7 20
-1 0 10 -28 23 -38 17 -4 -2 -14 3 -22 12 -13 14 -12 15 4 9 9 -4 26 -2 36 3
16 9 22 5 34 -19 8 -15 12 -32 8 -36 -4 -5 -2 -5 4 -2 10 6 91 -148 87 -165
-2 -4 56 -8 127 -8 72 0 130 2 130 5 0 6 -75 128 -110 180 -66 96 -119 225
-92 225 4 0 24 -11 45 -25 25 -18 37 -33 37 -49 0 -31 44 -113 125 -238 l65
-98 590 0 590 0 -6 28 c-2 15 -8 54 -13 87 -7 58 -6 62 27 107 40 57 38 88 -2
35 -16 -20 -35 -37 -43 -37 -14 0 -294 89 -302 96 -7 6 -22 237 -17 251 4 9
26 4 78 -18 80 -33 295 -109 309 -109 5 0 9 90 9 201 l0 201 -41 16 c-30 12
-37 18 -25 24 8 4 26 4 40 -2 21 -7 26 -6 26 5 0 8 -5 15 -11 15 -8 0 -8 4 0
14 7 8 11 36 9 64 l-3 50 -112 -74 c-99 -65 -119 -74 -159 -74 -50 0 -42 -6
-169 133 -38 42 -96 96 -129 119 l-58 43 53 6 54 6 -66 0 c-63 -1 -68 1 -150
54 -46 30 -101 65 -121 78 -21 12 -38 26 -38 31 0 10 137 193 190 252 40 46
43 48 83 42 23 -4 47 -10 52 -14 6 -4 33 -15 60 -24 125 -42 350 -183 459
-289 28 -26 51 -47 52 -47 2 0 3 102 4 228 l0 227 -101 64 c-85 54 -221 129
-263 145 -14 4 71 94 97 102 19 6 136 -45 220 -97 l47 -29 0 125 0 124 -92 44
c-51 25 -117 55 -145 67 -29 12 -51 26 -48 30 3 5 -5 6 -17 2 -14 -3 -19 -1
-14 6 10 16 -26 32 -69 30 -38 -1 -70 24 -39 30 17 4 232 -82 336 -134 80 -40
88 -41 88 -10 0 21 -16 31 -123 79 -67 30 -160 68 -205 84 l-82 28 0 48 c0 33
5 49 15 53 8 4 15 10 15 15 0 4 11 19 25 33 14 14 25 32 25 41 0 9 4 14 9 11
5 -4 7 3 4 14 -4 16 -14 20 -49 20 -23 0 -46 5 -49 10 -3 6 -13 10 -21 10 -16
0 -72 38 -111 75 l-22 21 122 12 c67 6 195 17 285 24 l162 12 0 42 c0 41 -2
43 -32 47 l-33 4 33 1 32 2 0 353 c0 261 -3 356 -12 365 -9 9 -9 12 0 12 9 0
12 36 12 131 l0 130 -22 -7 c-13 -4 -28 -9 -34 -11 -17 -6 -65 38 -80 73 -22
52 -18 166 6 197 27 34 73 44 105 23 l25 -16 0 480 0 480 -236 0 -235 0 -14
-34 c-19 -45 -77 -94 -122 -102 -43 -8 -160 9 -176 25 -8 8 2 11 34 11 l44 0
1 50 1 50 -1381 0 -1381 0 -40 -23z m1559 -206 c4 -5 -3 -7 -14 -4 -23 6 -26
13 -6 13 8 0 17 -4 20 -9z m436 -6 c0 -2 -6 -5 -13 -8 -8 -3 -14 1 -14 8 0 7
6 11 14 8 7 -3 13 -6 13 -8z m69 -20 c48 -17 97 -51 81 -57 -6 -2 -8 -11 -4
-21 5 -14 9 -15 20 -6 8 6 11 16 7 23 -3 6 2 4 13 -5 64 -51 93 -79 84 -79 -5
0 -10 -7 -10 -15 0 -8 5 -15 10 -15 6 0 10 -8 8 -17 -2 -13 5 -19 27 -21 l30
-3 -27 26 c-29 27 -34 35 -20 35 5 0 24 -21 42 -47 19 -27 26 -42 17 -34 -15
12 -17 11 -17 -3 0 -9 5 -16 11 -16 8 0 7 -6 -2 -17 -7 -10 -9 -15 -5 -11 5 4
16 2 24 -5 13 -10 14 -8 8 13 -7 24 -7 25 9 5 23 -28 59 -99 46 -91 -5 4 -12
2 -16 -4 -3 -6 4 -10 17 -10 20 -1 18 -3 -12 -18 -35 -18 -53 -12 -43 15 3 7
-1 13 -10 13 -9 0 -25 13 -36 29 -20 28 -20 29 -2 24 12 -3 17 -11 14 -19 -3
-8 0 -14 6 -14 6 0 11 5 11 12 0 14 24 -7 26 -22 1 -6 2 -13 3 -16 2 -9 31 17
31 27 0 5 -3 8 -7 7 -5 -2 -18 7 -30 20 -14 13 -35 22 -52 22 -33 0 -86 53
-74 73 3 7 3 9 -2 5 -11 -11 -36 12 -28 25 3 5 2 7 -4 4 -5 -3 -36 21 -69 54
-32 33 -51 57 -41 53 9 -3 17 -2 18 2 0 5 2 17 4 26 3 19 -27 34 -59 29 -12
-2 -16 1 -10 10 5 9 2 10 -10 6 -9 -4 -14 -3 -11 2 3 5 -3 12 -12 14 -10 3
-13 5 -7 6 6 0 30 -6 53 -14z m-3 -44 c26 4 35 -1 22 -15 -11 -11 -16 -11 -35
3 -12 9 -23 20 -23 25 0 5 6 3 14 -3 8 -6 18 -11 22 -10z m-506 -34 c0 -2 -10
-12 -22 -23 l-23 -19 19 23 c18 21 26 27 26 19z m84 -9 c-5 -7 -58 -87 -119
-178 -61 -91 -141 -216 -179 -277 -37 -62 -69 -113 -72 -113 -2 0 -4 8 -4 18
0 43 231 408 321 506 49 54 69 70 53 44z m-124 -42 c0 -2 -8 -10 -17 -17 -16
-13 -17 -12 -4 4 13 16 21 21 21 13z m-56 -71 c-14 -19 -29 -35 -31 -35 -5 0
7 18 36 53 26 31 23 18 -5 -18z m-34 -49 c0 -2 -8 -10 -17 -17 -16 -13 -17
-12 -4 4 13 16 21 21 21 13z m-155 -227 c-46 -74 -67 -102 -45 -59 20 38 79
130 84 130 3 0 -15 -32 -39 -71z m1128 44 c-5 -12 -3 -14 7 -8 9 6 11 4 5 -4
-5 -9 -11 -9 -17 -3 -6 6 -7 15 -4 21 11 17 16 13 9 -6z m56 -102 c-2 -6 -10
2 -17 17 -11 25 -11 25 4 10 9 -9 15 -21 13 -27z m44 4 c-3 -9 -8 -14 -10 -11
-3 3 -2 9 2 15 9 16 15 13 8 -4z m32 -65 c-3 -6 -1 -10 6 -10 7 0 9 -3 6 -6
-4 -4 -13 -2 -21 5 -12 10 -13 19 -6 51 0 3 5 -3 11 -13 5 -9 7 -22 4 -27z
m-1342 -15 c-13 -25 -27 -45 -29 -45 -5 0 24 60 38 78 20 24 16 12 -9 -33z
m1295 10 c-3 -3 -9 2 -12 12 -6 14 -5 15 5 6 7 -7 10 -15 7 -18z m-1345 -100
c-3 -9 -8 -14 -10 -11 -3 3 -2 9 2 15 9 16 15 13 8 -4z m-25 -45 c-7 -10 -14
-17 -17 -15 -4 4 18 35 25 35 2 0 -1 -9 -8 -20z m1444 -12 c-7 -7 -12 -8 -12
-2 0 6 3 14 7 17 3 4 9 5 12 2 2 -3 -1 -11 -7 -17z m-1489 -73 c-3 -9 -8 -14
-10 -11 -3 3 -2 9 2 15 9 16 15 13 8 -4z m1531 -51 c3 -8 2 -12 -4 -9 -6 3
-10 10 -10 16 0 14 7 11 14 -7z m-1554 2 c0 -3 -4 -8 -10 -11 -5 -3 -10 -1
-10 4 0 6 5 11 10 11 6 0 10 -2 10 -4z m1617 -268 c-3 -8 -6 -5 -6 6 -1 11 2
17 5 13 3 -3 4 -12 1 -19z m17 -34 c3 -8 2 -12 -4 -9 -6 3 -10 10 -10 16 0 14
7 11 14 -7z m-472 -29 c13 -18 8 -28 -7 -15 -13 11 -14 10 -10 -3 4 -8 2 -18
-4 -22 -7 -4 -11 5 -11 24 0 30 16 38 32 16z m-35 -92 c-3 -10 -5 -4 -5 12 0
17 2 24 5 18 2 -7 2 -21 0 -30z m63 2 c0 -5 -5 -3 -10 5 -5 8 -10 20 -10 25 0
6 5 3 10 -5 5 -8 10 -19 10 -25z m17 -87 c-3 -8 -6 -5 -6 6 -1 11 2 17 5 13 3
-3 4 -12 1 -19z m20 -80 c-3 -8 -6 -5 -6 6 -1 11 2 17 5 13 3 -3 4 -12 1 -19z
m50 -220 c-3 -8 -6 -5 -6 6 -1 11 2 17 5 13 3 -3 4 -12 1 -19z m583 -64 c0 -2
-9 0 -20 6 -11 6 -20 7 -20 3 0 -4 -5 -1 -10 7 -6 10 -10 11 -10 3 0 -7 -10
-13 -22 -13 -23 1 -23 1 -3 16 20 16 20 16 -2 9 -18 -5 -22 -3 -17 9 5 13 13
12 55 -9 27 -14 49 -28 49 -31z m-27 -25 c3 -10 1 -19 -4 -19 -6 0 -9 -8 -7
-17 4 -21 -23 -24 -30 -4 -3 8 0 11 7 7 21 -13 11 11 -11 28 -16 12 -18 16 -5
12 10 -3 17 0 17 9 0 20 27 8 33 -16z m-536 -21 c-3 -8 -6 -5 -6 6 -1 11 2 17
5 13 3 -3 4 -12 1 -19z m30 -370 c-2 -29 -3 -6 -3 52 0 58 1 81 3 53 2 -29 2
-77 0 -105z m489 -115 c-10 -10 -19 5 -10 18 6 11 8 11 12 0 2 -7 1 -15 -2
-18z m-20 -120 c-4 -16 -9 -45 -13 -65 -3 -21 -9 -38 -14 -38 -5 0 -6 -6 -3
-14 4 -11 -16 -121 -56 -306 -10 -45 -29 -90 -29 -70 -1 8 6 49 14 90 8 41 19
98 24 126 5 28 14 69 19 90 5 22 15 71 22 111 8 43 17 70 23 66 6 -4 8 2 5 15
-4 12 -2 22 4 22 6 0 8 -11 4 -27z m197 -110 c-7 -2 -19 -2 -25 0 -7 3 -2 5
12 5 14 0 19 -2 13 -5z m-56 -9 c-3 -3 -12 -4 -19 -1 -8 3 -5 6 6 6 11 1 17
-2 13 -5z m50 -20 c-3 -3 -12 -4 -19 -1 -8 3 -5 6 6 6 11 1 17 -2 13 -5z
m-572 -71 c83 -70 191 -202 229 -279 31 -63 30 -93 -5 -159 -74 -138 -439
-527 -587 -625 -41 -27 -50 -29 -98 -24 -42 5 -67 2 -116 -16 -118 -42 -321
-192 -464 -341 -79 -83 -98 -120 -90 -174 5 -39 2 -46 -30 -77 -71 -72 -174
-109 -182 -66 -2 12 13 25 50 44 29 15 72 40 96 56 35 24 42 34 42 62 0 44 49
139 104 201 24 27 44 54 43 59 -4 19 168 155 261 208 121 68 176 89 248 93 54
3 61 7 152 82 222 182 381 364 476 546 l49 94 -38 69 c-62 114 -111 179 -175
234 -52 46 -66 70 -41 70 4 0 39 -26 76 -57z m470 47 c-3 -5 -12 -10 -18 -10
-7 0 -6 4 3 10 19 12 23 12 15 0z m-4255 -397 c25 -9 62 -27 83 -40 34 -22 37
-27 39 -73 0 -28 1 -54 2 -59 1 -6 -37 -42 -84 -80 l-84 -70 -12 38 c-27 92
-27 301 -1 301 6 0 32 -8 57 -17z m215 -204 c-20 -30 -54 -90 -76 -135 l-39
-81 -83 -22 c-104 -29 -110 -33 -112 -67 -6 -77 25 -318 51 -402 5 -15 4 -15
-6 1 -22 34 -68 227 -80 337 -5 41 -12 86 -16 99 -5 17 -4 22 4 17 7 -4 12 -3
12 3 0 25 363 321 377 307 2 -2 -13 -28 -32 -57z m66 -52 l-6 -89 -45 -21
c-30 -15 -48 -31 -54 -49 -10 -29 5 -137 31 -221 8 -27 13 -51 10 -53 -6 -7
-62 164 -76 231 -9 46 -8 54 16 95 34 57 127 200 129 197 1 -1 -1 -42 -5 -90z
m3559 -201 c-31 -64 -136 -186 -320 -371 -177 -178 -232 -207 -69 -37 51 54
121 129 154 168 33 38 82 92 109 121 48 51 76 99 76 131 0 9 12 29 27 44 27
28 27 28 35 7 6 -15 2 -35 -12 -63z m695 74 c3 -5 2 -10 -4 -10 -5 0 -13 5
-16 10 -3 6 -2 10 4 10 5 0 13 -4 16 -10z m80 -30 c3 -5 1 -10 -4 -10 -6 0
-11 5 -11 10 0 6 2 10 4 10 3 0 8 -4 11 -10z m30 -40 c3 -5 1 -10 -4 -10 -6 0
-11 5 -11 10 0 6 2 10 4 10 3 0 8 -4 11 -10z m-4802 -70 c-4 -4 -18 -11 -30
-15 -18 -5 -23 -2 -23 12 0 24 53 46 58 25 2 -8 0 -18 -5 -22z m3907 10 c-6
-11 -13 -20 -16 -20 -2 0 0 9 6 20 6 11 13 20 16 20 2 0 0 -9 -6 -20z m1064
-66 c3 -8 2 -12 -4 -9 -6 3 -10 10 -10 16 0 14 7 11 14 -7z m-4574 -159 c0 -5
-5 -3 -10 5 -5 8 -10 20 -10 25 0 6 5 3 10 -5 5 -8 10 -19 10 -25z m435 -35
c38 -38 67 -70 64 -70 -2 0 -36 32 -74 70 -38 39 -67 70 -64 70 2 0 36 -31 74
-70z m-455 -51 c0 -9 -7 -19 -15 -23 -8 -3 -15 -12 -15 -21 0 -26 40 -136 103
-280 82 -188 148 -304 244 -431 l23 -32 -22 -6 c-41 -11 -45 -7 -102 80 -126
194 -316 609 -316 689 0 15 15 39 37 61 l37 37 13 -29 c6 -16 12 -36 13 -45z
m555 -39 c10 -11 16 -20 13 -20 -3 0 -13 9 -23 20 -10 11 -16 20 -13 20 3 0
13 -9 23 -20z m-550 0 c-3 -5 -11 -10 -16 -10 -6 0 -7 5 -4 10 3 6 11 10 16
10 6 0 7 -4 4 -10z m758 -97 c-7 -2 -19 -2 -25 0 -7 3 -2 5 12 5 14 0 19 -2
13 -5z m2361 -42 c6 -10 -204 -216 -342 -334 -125 -108 -377 -309 -467 -372
-123 -87 -152 -104 -211 -114 -81 -15 -281 -13 -474 4 -203 19 -234 25 -238
49 -2 10 0 16 5 13 23 -14 414 -49 564 -51 l165 -1 45 29 c69 45 187 137 331
256 72 60 135 107 140 104 4 -3 8 3 8 12 0 10 3 14 6 11 4 -3 15 5 26 18 11
14 27 25 37 25 21 0 54 33 44 44 -5 4 -1 6 7 4 8 -2 14 3 12 10 -1 8 2 10 8 7
14 -9 52 24 43 38 -4 6 -1 7 6 3 13 -8 171 144 171 164 0 6 4 9 9 5 5 -3 12 4
16 15 4 11 11 18 16 15 5 -4 12 1 15 9 3 9 14 16 23 17 10 0 11 2 3 6 -6 2
-10 9 -6 14 7 11 31 12 38 0z m-3403 -234 l46 -42 -6 -75 -6 -75 -62 -33 -63
-33 -33 25 c-19 15 -39 26 -45 26 -6 0 8 37 31 83 23 45 50 101 59 125 9 23
20 42 25 42 4 0 29 -19 54 -43z m1571 -269 c74 -44 85 -55 71 -69 -5 -5 -35
10 -73 38 -83 60 -290 223 -290 229 0 2 50 -33 112 -77 61 -44 142 -98 180
-121z m334 130 c-5 -25 -25 -286 -26 -331 0 -5 -19 -7 -42 -5 -41 3 -43 5 -47
38 -2 19 2 99 9 177 12 142 13 142 39 146 70 11 74 10 67 -25z m1438 -7 c10
-11 49 -40 87 -66 38 -25 69 -51 69 -56 0 -11 -80 44 -151 103 -24 21 -39 38
-33 38 6 0 19 -9 28 -19z m-2146 -29 c10 -7 8 -22 -8 -73 -23 -70 -54 -207
-65 -282 l-6 -47 -26 30 c-25 30 -25 32 -13 93 25 121 50 209 74 255 17 34 23
37 44 24z m-498 -247 c19 -7 28 -13 20 -13 -8 0 -31 6 -50 13 -19 7 -28 13
-20 13 8 0 31 -6 50 -13z m3280 -108 c47 -20 98 -41 114 -47 20 -7 26 -14 19
-21 -26 -26 -313 114 -313 152 0 17 6 15 48 -15 26 -18 85 -49 132 -69z
m-3213 87 c-3 -3 -12 -4 -19 -1 -8 3 -5 6 6 6 11 1 17 -2 13 -5z m53 -14 c18
-12 2 -12 -25 0 -13 6 -15 9 -5 9 8 0 22 -4 30 -9z"/>
<path d="M3783 4756 c-10 -33 -5 -38 27 -26 3 1 10 2 15 1 6 -1 1 6 -9 14 -18
14 -18 15 -2 15 10 0 20 -9 23 -20 3 -11 12 -20 20 -20 9 0 7 7 -9 23 -49 49
-54 50 -65 13z"/>
<path d="M3806 4704 c-4 -10 -1 -14 6 -12 15 5 23 28 10 28 -5 0 -13 -7 -16
-16z"/>
<path d="M3875 4630 c-3 -6 1 -7 9 -4 18 7 21 14 7 14 -6 0 -13 -4 -16 -10z"/>
<path d="M3915 4630 c-3 -5 -1 -10 4 -10 6 0 11 5 11 10 0 6 -2 10 -4 10 -3 0
-8 -4 -11 -10z"/>
<path d="M470 5055 c0 -5 -27 -46 -60 -90 -78 -104 -78 -128 1 -33 74 90 80
100 68 119 -5 7 -9 10 -9 4z"/>
<path d="M149 4883 c-18 -27 -47 -66 -64 -88 -58 -73 -90 -119 -79 -112 11 7
140 174 169 220 30 46 8 30 -26 -20z"/>
<path d="M572 4891 c1 -24 -6 -40 -22 -53 -12 -10 -18 -18 -13 -18 5 0 24 12
42 28 l33 27 -20 25 -21 25 1 -34z"/>
<path d="M400 4903 c0 -16 98 -118 106 -111 4 4 -15 32 -42 62 -47 52 -64 65
-64 49z"/>
<path d="M317 4893 c-4 -3 -7 -13 -7 -22 1 -13 3 -13 11 2 11 19 8 33 -4 20z"/>
<path d="M500 4865 c13 -14 26 -25 28 -25 3 0 -5 11 -18 25 -13 14 -26 25 -28
25 -3 0 5 -11 18 -25z"/>
<path d="M331 4802 c-19 -55 -79 -216 -92 -249 -7 -15 -17 -41 -24 -58 -74
-176 -106 -248 -156 -352 -58 -120 -77 -183 -43 -138 56 74 242 504 227 527
-3 6 -2 8 4 5 9 -6 109 290 101 298 -2 3 -10 -12 -17 -33z"/>
<path d="M1172 4235 c-17 -37 -14 -45 4 -12 9 16 14 31 11 33 -2 2 -9 -7 -15
-21z"/>
<path d="M2692 4188 c-7 -7 -12 -17 -12 -24 0 -6 -16 -28 -35 -48 -19 -21 -35
-39 -35 -40 0 -2 10 -3 23 -2 17 1 21 7 20 24 -2 13 1 21 5 18 5 -3 18 15 30
39 23 47 24 53 4 33z"/>
<path d="M1040 4154 c-77 -20 -203 -64 -214 -75 -17 -16 2 -22 50 -14 32 4 43
9 34 15 -11 7 -7 11 14 20 50 19 106 29 106 18 0 -5 9 -6 21 -3 11 4 39 8 61
10 30 2 44 8 49 22 6 17 2 19 -30 21 -20 0 -61 -6 -91 -14z"/>
<path d="M2620 4050 c-8 -6 -11 -10 -7 -10 5 0 1 -7 -8 -16 -13 -14 -14 -19
-3 -25 7 -5 8 -9 3 -9 -6 0 -16 -9 -23 -20 -10 -16 -10 -20 2 -20 11 0 61 98
53 106 -1 2 -9 -1 -17 -6z"/>
<path d="M2558 3923 c0 -10 -1 -26 0 -35 1 -10 -3 -18 -9 -18 -5 0 -7 -5 -3
-12 5 -7 2 -9 -8 -6 -8 4 -15 0 -15 -8 0 -7 4 -11 9 -8 13 8 9 -9 -7 -30 -7
-10 -18 -15 -24 -11 -6 3 -11 1 -11 -4 0 -6 4 -11 8 -11 4 0 8 -9 9 -20 1 -11
-3 -19 -9 -17 -12 2 -30 -51 -22 -65 7 -11 25 1 22 15 -1 7 3 22 10 35 7 12
10 27 7 32 -3 6 -2 10 4 10 10 0 47 96 45 118 -1 6 3 12 8 12 6 0 7 7 4 16 -3
8 -2 12 4 9 6 -3 10 -1 10 4 0 19 -30 12 -32 -6z"/>
<path d="M2294 3649 c-16 -4 14 -7 66 -6 94 0 98 3 9 9 -25 2 -59 0 -75 -3z"/>
<path d="M2113 3643 c15 -2 39 -2 55 0 15 2 2 4 -28 4 -30 0 -43 -2 -27 -4z"/>
<path d="M371 3304 c0 -11 3 -14 6 -6 3 7 2 16 -1 19 -3 4 -6 -2 -5 -13z"/>
<path d="M352 3140 c0 -19 2 -27 5 -17 2 9 2 25 0 35 -3 9 -5 1 -5 -18z"/>
<path d="M352 2890 c0 -14 2 -19 5 -12 2 6 2 18 0 25 -3 6 -5 1 -5 -13z"/>
<path d="M361 2785 c0 -11 4 -29 9 -40 l9 -20 0 20 c0 11 -4 29 -9 40 l-9 20
0 -20z"/>
<path d="M105 2690 c-13 -6 -15 -9 -5 -9 8 0 22 4 30 9 18 12 2 12 -25 0z"/>
<path d="M384 2675 c4 -16 12 -34 17 -40 5 -5 4 6 -2 25 -15 45 -24 54 -15 15z"/>
<path d="M4750 2682 c-14 -2 -29 -8 -35 -14 -13 -14 367 -3 392 11 13 7 -33 9
-157 8 -96 -1 -186 -4 -200 -5z"/>
<path d="M0 2587 c0 -9 35 -25 90 -43 80 -26 90 -32 96 -56 3 -16 6 -28 7 -28
4 0 283 -97 300 -105 16 -7 16 -5 6 18 -7 15 -15 25 -19 22 -3 -2 -67 16 -141
39 -98 32 -135 48 -138 61 -3 16 2 17 50 10 109 -17 189 -9 189 19 0 10 -12
11 -57 3 -75 -13 -192 5 -291 44 -83 33 -92 34 -92 16z"/>
<path d="M440 2491 c0 -6 4 -13 10 -16 6 -3 7 1 4 9 -7 18 -14 21 -14 7z"/>
<path d="M3445 2146 c-406 -208 -752 -329 -1150 -402 -122 -23 -167 -26 -355
-26 -118 0 -233 4 -255 10 -22 6 -101 26 -175 46 -74 20 -136 36 -138 36 -2 0
3 -7 12 -15 8 -8 18 -15 22 -15 4 0 16 -7 26 -17 10 -9 18 -11 18 -5 0 6 -6
13 -12 15 -10 4 -10 6 0 6 7 1 20 -5 28 -13 7 -8 59 -22 114 -32 55 -10 100
-22 100 -27 0 -5 -7 -7 -14 -4 -10 4 -13 1 -9 -9 3 -7 17 -15 32 -15 25 -2 25
-2 2 -6 -13 -3 -28 0 -34 6 -7 7 -17 7 -31 -1 -12 -6 -34 -15 -51 -20 -20 -5
-7 -6 36 -3 36 3 126 10 198 15 149 12 604 16 726 7 44 -3 68 -3 53 -1 -27 5
-33 18 -30 65 1 12 -7 15 -31 12 -18 -1 11 8 63 21 54 13 99 20 105 15 14 -13
25 -11 25 5 0 13 19 26 50 32 37 7 84 22 75 23 -14 2 57 40 75 40 13 1 13 0 0
-9 -24 -15 -5 -12 55 11 34 13 53 25 48 31 -4 8 0 9 11 5 9 -4 15 -3 12 2 -8
12 92 54 110 47 9 -4 12 -2 8 5 -4 8 1 9 16 4 17 -5 21 -4 15 5 -5 8 -4 11 1
7 6 -3 41 5 79 18 38 14 70 23 71 22 1 -1 14 -36 28 -77 l26 -75 -6 65 c-3 36
-7 75 -10 88 -2 12 -1 22 4 22 11 0 191 109 223 135 32 26 44 45 27 44 -7 0
-94 -42 -193 -93z m-1638 -453 c0 -16 -73 -18 -82 -2 -4 6 -13 8 -21 5 -8 -3
-14 -1 -14 3 0 5 26 9 58 8 41 -1 59 -5 59 -14z"/>
<path d="M1758 1693 c7 -3 16 -2 19 1 4 3 -2 6 -13 5 -11 0 -14 -3 -6 -6z"/>
<path d="M3445 2076 c-17 -13 -18 -15 -3 -16 9 0 22 -8 27 -17 8 -14 10 -15
10 -3 0 8 -4 23 -7 33 -7 16 -9 16 -27 3z"/>
<path d="M860 1995 c0 -8 4 -15 10 -15 5 0 7 7 4 15 -4 8 -8 15 -10 15 -2 0
-4 -7 -4 -15z"/>
<path d="M900 1986 c0 -2 7 -7 16 -10 8 -3 12 -2 9 4 -6 10 -25 14 -25 6z"/>
<path d="M950 1960 c8 -5 20 -10 25 -10 6 0 3 5 -5 10 -8 5 -19 10 -25 10 -5
0 -3 -5 5 -10z"/>
<path d="M2870 1860 c-8 -5 -10 -10 -5 -10 6 0 17 5 25 10 8 5 11 10 5 10 -5
0 -17 -5 -25 -10z"/>
<path d="M2711 1750 c0 -8 4 -22 9 -30 12 -18 12 -2 0 25 -6 13 -9 15 -9 5z"/>
<path d="M1445 1721 c-4 -8 -3 -16 4 -21 7 -4 11 -24 10 -46 -2 -22 1 -45 5
-52 8 -13 -53 -42 -90 -42 -31 0 -39 -16 -11 -24 37 -10 82 -7 101 7 14 10 18
26 18 63 -2 60 -25 134 -37 115z"/>
<path d="M1522 1580 c0 -14 2 -19 5 -12 2 6 2 18 0 25 -3 6 -5 1 -5 -13z"/>
<path d="M1495 1540 c-16 -7 -17 -9 -3 -9 9 -1 20 4 23 9 7 11 7 11 -20 0z"/>
<path d="M10 1450 c8 -5 20 -10 25 -10 6 0 3 5 -5 10 -8 5 -19 10 -25 10 -6 0
-3 -5 5 -10z"/>
<path d="M4658 1193 c7 -3 16 -2 19 1 4 3 -2 6 -13 5 -11 0 -14 -3 -6 -6z"/>
<path d="M4728 1193 c7 -3 16 -2 19 1 4 3 -2 6 -13 5 -11 0 -14 -3 -6 -6z"/>
<path d="M4768 1193 c7 -3 16 -2 19 1 4 3 -2 6 -13 5 -11 0 -14 -3 -6 -6z"/>
<path d="M2285 869 c-49 -4 -177 -7 -282 -8 -118 -1 -193 -5 -193 -11 0 -5 12
-16 28 -25 62 -34 82 -61 82 -112 0 -26 5 -55 11 -63 8 -11 9 -6 5 21 l-6 36
88 12 c169 21 357 33 437 27 73 -6 82 -9 114 -41 37 -38 58 -44 67 -20 8 20
-10 63 -57 136 l-39 59 -82 -2 c-46 0 -123 -4 -173 -9z m271 -97 c59 -69 63
-80 15 -41 l-43 34 -124 4 c-108 3 -297 -11 -345 -25 -9 -2 -31 9 -50 26 l-34
30 125 -5 c104 -5 242 3 405 24 6 0 28 -20 51 -47z m-596 -32 c-8 -5 -19 -10
-25 -10 -5 0 -3 5 5 10 8 5 20 10 25 10 6 0 3 -5 -5 -10z"/>
<path d="M5080 133 c0 -15 7 -50 14 -78 12 -41 15 -45 15 -20 0 17 4 46 7 67
5 30 2 38 -15 47 -19 11 -21 9 -21 -16z"/>
<path d="M3472 130 c7 -10 14 -18 15 -16 6 6 -9 36 -18 36 -5 0 -4 -9 3 -20z"/>
<path d="M1619 83 c-13 -16 -12 -17 4 -4 16 13 21 21 13 21 -2 0 -10 -8 -17
-17z"/>
</g>
</svg>
